<svg xmlns="http://www.w3.org/2000/svg" viewBox="0 0 512 512" width="512" height="512">
  <defs>
    <linearGradient id="gradient" x1="0%" y1="0%" x2="100%" y2="100%">
      <stop offset="0%" style="stop-color:#4CAF50;stop-opacity:1" />
      <stop offset="100%" style="stop-color:#388E3C;stop-opacity:1" />
    </linearGradient>
    <filter id="shadow">
      <dropShadow dx="2" dy="2" stdDeviation="3" flood-color="rgba(0,0,0,0.3)"/>
    </filter>
  </defs>
  
  <!-- Background circle with shadow -->
  <circle cx="256" cy="256" r="230" fill="url(#gradient)" stroke="#2E7D32" stroke-width="8" filter="url(#shadow)"/>
  
  <!-- Fork -->
  <g fill="white">
    <!-- Fork handle -->
    <rect x="128" y="280" width="16" height="128" rx="8"/>
    <!-- Fork prongs -->
    <rect x="102" y="178" width="10" height="128" rx="5"/>
    <rect x="122" y="152" width="10" height="154" rx="5"/>
    <rect x="142" y="178" width="10" height="128" rx="5"/>
  </g>
  
  <!-- Knife -->
  <g fill="white">
    <!-- Knife handle -->
    <rect x="368" y="280" width="16" height="128" rx="8"/>
    <!-- Knife blade -->
    <path d="M358 178 L394 178 L384 256 L368 256 Z" />
  </g>
  
  <!-- Plate -->
  <ellipse cx="256" cy="230" rx="77" ry="40" fill="none" stroke="white" stroke-width="10"/>
  
  <!-- Food on plate -->
  <circle cx="230" cy="218" r="10" fill="#FFC107"/>
  <circle cx="266" cy="230" r="8" fill="#FF5722"/>
  <circle cx="246" cy="240" r="6" fill="#8BC34A"/>
  <circle cx="274" cy="216" r="5" fill="#FF9800"/>
  
  <!-- Inner highlight on circle -->
  <circle cx="256" cy="256" r="210" fill="none" stroke="rgba(255,255,255,0.2)" stroke-width="4"/>
</svg>
